<svg aria-hidden="true" style="position: absolute; width: 0; height: 0; overflow: hidden;" version="1.1" xmlns="http://www.w3.org/2000/svg" xmlns:xlink="http://www.w3.org/1999/xlink">
<defs>
<symbol id="icon-youtube-1" viewBox="0 0 32 32">
<path  d="M16.326 5.334c0.712 0.004 2.492 0.020 4.386 0.096l0.672 0.030c1.906 0.090 3.81 0.244 4.754 0.506 1.26 0.356 2.25 1.388 2.584 2.696 0.534 2.080 0.6 6.136 0.608 7.12l0.002 0.202v0.232c-0.010 0.982-0.076 5.040-0.61 7.12-0.33 1.299-1.306 2.311-2.557 2.687l-0.027 0.007c-0.944 0.264-2.848 0.418-4.754 0.508l-0.672 0.030c-1.894 0.074-3.674 0.094-4.386 0.096h-0.654c-1.506-0.008-7.808-0.076-9.814-0.634-1.278-0.384-2.254-1.397-2.578-2.67l-0.006-0.026c-0.532-2.080-0.6-6.136-0.608-7.118v-0.434c0.008-0.984 0.076-5.040 0.608-7.12 0.33-1.3 1.307-2.313 2.56-2.687l0.027-0.007c2.004-0.56 8.306-0.626 9.814-0.634h0.652zM13.332 11.334v9.332l8-4.666-8-4.666z"></path>
</symbol>
<symbol id="icon-tiktok-1" viewBox="0 0 32 32">
<path  d="M21.334 10.994v9.672c0 0 0 0 0 0 0 4.787-3.881 8.668-8.668 8.668s-8.668-3.881-8.668-8.668c0-4.787 3.881-8.668 8.668-8.668 0.71 0 1.399 0.085 2.059 0.246l-0.059-0.012v4.218c-0.585-0.284-1.272-0.449-1.998-0.449-2.577 0-4.666 2.089-4.666 4.666s2.089 4.666 4.666 4.666c2.577 0 4.666-2.089 4.666-4.666 0-0 0-0 0-0.001v0-18h4c0 0.001 0 0.001 0 0.002 0 3.682 2.984 6.666 6.666 6.666v0 4c-0.005 0-0.010 0-0.016 0-2.527 0-4.847-0.882-6.67-2.356l0.020 0.016z"></path>
</symbol>
<symbol id="icon-instagram-1" viewBox="0 0 32 32">
<path d="M17.37 2.668c0.974-0.004 1.946 0.006 2.92 0.030l0.26 0.008 0.948 0.040c1.42 0.068 2.386 0.292 3.236 0.62 0.88 0.34 1.62 0.798 2.362 1.54 0.678 0.666 1.202 1.472 1.538 2.36 0.328 0.85 0.552 1.82 0.62 3.238l0.040 0.95 0.008 0.258c0.024 0.972 0.034 1.944 0.030 2.918v2.74c0 0.115 0.001 0.251 0.001 0.388 0 0.89-0.011 1.778-0.033 2.664l0.003-0.131-0.008 0.258c-0.010 0.3-0.024 0.594-0.040 0.95-0.066 1.418-0.292 2.386-0.62 3.236-0.334 0.89-0.86 1.696-1.538 2.36-0.65 0.662-1.438 1.185-2.317 1.525l-0.045 0.015c-0.85 0.328-1.818 0.552-3.236 0.62l-0.95 0.040-0.26 0.008c-0.754 0.020-1.642 0.031-2.532 0.031-0.136 0-0.271-0-0.407-0.001l0.021 0h-2.74c-0.112 0-0.245 0.001-0.378 0.001-0.893 0-1.784-0.011-2.672-0.033l0.132 0.003-0.26-0.008c-0.484-0.017-0.814-0.031-1.143-0.048l0.195 0.008c-1.42-0.066-2.386-0.292-3.238-0.62-0.924-0.354-1.711-0.878-2.359-1.539l-0.001-0.001c-0.662-0.649-1.186-1.436-1.525-2.315l-0.015-0.045c-0.328-0.85-0.552-1.82-0.62-3.236-0.007-0.102-0.022-0.433-0.034-0.764l-0.006-0.186-0.006-0.26c-0.022-0.8-0.034-1.742-0.034-2.687 0-0.081 0-0.162 0-0.243l-0 0.012v-2.74c-0.002-0.974 0.006-1.946 0.030-2.92l0.010-0.256c0.010-0.3 0.024-0.596 0.040-0.95 0.066-1.42 0.29-2.386 0.62-3.238 0.334-0.89 0.86-1.694 1.54-2.36 0.666-0.68 1.472-1.204 2.36-1.54 0.852-0.328 1.82-0.552 3.24-0.62l0.948-0.040 0.26-0.006c0.97-0.024 1.942-0.036 2.916-0.034l2.74 0.002zM16 9.334c-3.682 0-6.666 2.984-6.666 6.666s2.984 6.666 6.666 6.666v0c3.682 0 6.666-2.984 6.666-6.666s-2.984-6.666-6.666-6.666v0zM16 12.002c0.027-0.001 0.058-0.001 0.089-0.001 2.209 0 4 1.791 4 4s-1.791 4-4 4c-0.031 0-0.063-0-0.094-0.001l0.005 0c-2.209 0-4-1.791-4-4s1.791-4 4-4v0zM23 7.334c-0.92 0-1.666 0.746-1.666 1.666s0.746 1.666 1.666 1.666v0c0.921 0 1.667-0.746 1.667-1.667s-0.746-1.667-1.667-1.667v0 0.002z"></path>
</symbol>
<symbol id="icon-Group-2232-1" viewBox="0 0 33 32">
<path d="M2.666 9.767s-0.494-9.197 1.504-9.656c1.998-0.459 5.444 2.84 5.444 2.84l-6.948 6.817zM21.54 3.175s3.688-3.673 6.303-3.061c2.613 0.612 0.616 7.872 0.616 7.872l-6.919-4.811z"></path>
<path fill="#f07f2e" style="fill: var(--color3, #f07f2e); stroke: var(--color2, #000)" stroke="#000" stroke-linejoin="miter" stroke-linecap="butt" stroke-miterlimit="10" stroke-width="0.5565" d="M28.755 26.584c-2.769 2.187-4.619 2.902-7.768 3.754-2.101 0.569-7.391 0.54-12.321-1.444-3.453-1.511-4.807-3.154-5.458-4.049-0.568-0.779-1.722-2.507-1.788-4.397-0.097-2.752-0.015-5.437 1.248-10.677 1.262-5.242 6.948-6.817 6.948-6.817 6.212-1.465 11.37-0.313 13.16 0 1.789 0.316 6.876 3.535 7.313 9.99 0.067 0.964 1.148 4.397 1.252 7.279 0.031 0.883 0.056 2.061-0.384 3.27-0.508 1.391-1.642 2.621-2.202 3.090z"></path>
<path  d="M11.633 13.561c0.045-0.082 0.095-0.161 0.149-0.239l0.078-0.111 0.046-0.060c0.114-0.138 0.234-0.262 0.362-0.375l0.004-0.003c0.015-0.014 0.097-0.082 0.033-0.031-0.065 0.050 0.029-0.019 0.050-0.035 0.046-0.032 0.1-0.064 0.156-0.093l0.008-0.004 0.086-0.043c0.057-0.029-0.102 0.032 0.010-0.001 0.063-0.019 0.125-0.035 0.185-0.049 0.083-0.021-0.104 0.003-0.019 0.003 0.038 0 0.075-0.004 0.114-0.003 0.035 0 0.070 0.006 0.102 0.006 0.061 0-0.1-0.028-0.042-0.004 0.014 0.004 0.032 0.004 0.046 0.010l0.106 0.028 0.046 0.018c0.096 0.028-0.056-0.036-0.008-0.004 0.079 0.054 0.173 0.095 0.253 0.147 0.017 0.011 0.033 0.022 0.049 0.036-0.078-0.060 0 0 0.014 0.015 0.045 0.042 0.090 0.079 0.134 0.122 0.217 0.216 0.351 0.406 0.516 0.673 0.139 0.221 0.435 0.309 0.668 0.174 0.144-0.087 0.238-0.243 0.238-0.421 0-0.089-0.024-0.173-0.065-0.245l0.001 0.002c-0.522-0.836-1.313-1.683-2.396-1.494-0.65 0.114-1.159 0.626-1.53 1.135-0.085 0.115-0.167 0.235-0.234 0.359-0.040 0.069-0.063 0.153-0.063 0.241 0 0.178 0.094 0.334 0.236 0.421l0.002 0.001c0.22 0.125 0.543 0.056 0.668-0.177zM25.878 12.867c0.070-0.129 0.142-0.239 0.222-0.343l-0.005 0.006c0.012-0.016 0.026-0.035 0.039-0.054l0.003-0.004c0.036-0.047-0.081 0.099-0.007 0.014 0.112-0.135 0.229-0.256 0.354-0.367l0.003-0.003c0.015-0.014 0.097-0.079 0.031-0.028-0.067 0.053 0.025-0.017 0.046-0.029 0.050-0.035 0.102-0.067 0.156-0.096l0.081-0.042c0.057-0.028-0.107 0.035 0.006 0 0.058-0.017 0.118-0.031 0.178-0.046 0.082-0.019-0.109 0.006-0.024 0.003 0.036 0 0.071-0.004 0.109-0.003 0.033 0 0.065 0.007 0.097 0.007 0.063 0-0.102-0.028-0.045-0.006 0.013 0.006 0.028 0.006 0.042 0.008l0.1 0.028c0.014 0.004 0.029 0.011 0.045 0.014 0.095 0.028-0.058-0.036-0.014-0.006 0.077 0.051 0.166 0.089 0.243 0.142 0.018 0.013 0.032 0.024 0.046 0.036l-0.002-0.001c-0.083-0.064-0.006-0.004 0.010 0.011 0.042 0.039 0.086 0.075 0.127 0.115 0.214 0.213 0.327 0.378 0.494 0.641 0.138 0.223 0.435 0.309 0.666 0.175 0.144-0.087 0.239-0.243 0.239-0.422 0-0.089-0.024-0.172-0.065-0.245l0.001 0.002c-0.506-0.81-1.272-1.624-2.318-1.441-0.63 0.111-1.119 0.604-1.48 1.096-0.081 0.111-0.157 0.225-0.223 0.345-0.040 0.069-0.063 0.153-0.063 0.241 0 0.178 0.094 0.334 0.236 0.421l0.002 0.001c0.223 0.129 0.547 0.060 0.671-0.174z"></path>
<path fill="none" stroke="#000" style="stroke: var(--color2, #000)" stroke-linejoin="miter" stroke-linecap="butt" stroke-miterlimit="10" stroke-width="0.5565" d="M14.778 17.77l-5.045-0.163M14.862 19.501l-4.38 0.648M28.068 17.023l5.045-0.163M27.986 18.748l4.38 0.646M20.851 18.972s2.44 3.364 4.505-0.063M23.123 16.458v3.798"></path>
<path  d="M23.079 16.629c1.023 0 1.85-0.582 1.85-1.299 0-0.717-0.828-1.298-1.85-1.298-1.021 0-1.85 0.582-1.85 1.298 0 0.718 0.829 1.299 1.85 1.299z"></path>
<path fill="#000" style="fill: var(--color2, #000); stroke: var(--color2, #000)" stroke="#000" stroke-linejoin="miter" stroke-linecap="butt" stroke-miterlimit="10" stroke-width="0.5565" d="M6.873 14.791c1.642-1.692-3.603-5.242-3.989-5.394-0.018-0.007-1.493 6.637-1.416 10.638 0.018 0.934 0.195 1.906 0.195 1.906 0.307 0.273 0.509 1.149 2.808 0.029 1.286-0.626 1.54-1.902 0.369-2.147-2.251-0.473 0.007-0.974-0.362-1.864-0.932-2.247 0.671-1.389 2.396-3.168zM29.149 21.39c0.191-1.99 2.059-1.427 2.059-1.427 0.621 3.631-1.553 6.098-3.119 6.962-0.381 0-0.746-2.221 0.11-2.504 0.854-0.282 0.761-1.041 0.95-3.030z"></path>
</symbol>
<symbol id="icon-facebook-1" viewBox="0 0 32 32">
<path  d="M21.33 5.314h2.92v-5.088c-1.238-0.144-2.672-0.226-4.125-0.226-0.046 0-0.092 0-0.138 0l0.007-0c-4.212 0-7.094 2.65-7.094 7.52v4.48h-4.65v5.688h4.648v14.312h5.698v-14.31h4.46l0.708-5.69h-5.17v-3.92c0.002-1.644 0.444-2.768 2.736-2.768z"></path>
</symbol>
</defs>
</svg>
